<svg width="1600" height="900" viewBox="0 0 1600 900" fill="none" xmlns="http://www.w3.org/2000/svg">
  <rect width="1600" height="900" fill="#FAFBFD"/>
  <circle cx="1390" cy="120" r="180" fill="#E7EDF7"/>
  <circle cx="220" cy="760" r="220" fill="#E7EDF7"/>
  <rect x="92" y="80" width="1416" height="740" rx="40" fill="white" stroke="#D7DFEE" stroke-width="4"/>

  <rect x="144" y="132" width="884" height="560" rx="32" fill="#0B1020"/>
  <rect x="178" y="168" width="816" height="458" rx="22" fill="url(#screenGradient)"/>
  <rect x="178" y="168" width="816" height="84" rx="22" fill="#0F1730"/>
  <circle cx="224" cy="210" r="10" fill="#FF7A70"/>
  <circle cx="256" cy="210" r="10" fill="#FFCB4F"/>
  <circle cx="288" cy="210" r="10" fill="#51D27A"/>
  <rect x="330" y="194" width="208" height="32" rx="16" fill="#182442"/>
  <text x="354" y="216" fill="#D8E1F0" font-family="Arial, Helvetica, sans-serif" font-size="20" font-weight="700">development-setup</text>

  <text x="228" y="322" fill="#51D27A" font-family="Courier New, monospace" font-size="30" font-weight="700">$ uv sync</text>
  <text x="228" y="376" fill="#D8E1F0" font-family="Courier New, monospace" font-size="28">Creating virtual environment...</text>
  <text x="228" y="426" fill="#D8E1F0" font-family="Courier New, monospace" font-size="28">Installing dependencies...</text>
  <text x="228" y="476" fill="#D8E1F0" font-family="Courier New, monospace" font-size="28">Setting interpreter to .venv</text>

  <rect x="228" y="536" width="236" height="54" rx="16" fill="#2F6BFF"/>
  <text x="262" y="571" fill="white" font-family="Arial, Helvetica, sans-serif" font-size="24" font-weight="700">Kernel: .venv</text>

  <rect x="532" y="536" width="288" height="54" rx="16" fill="#E7EDF7"/>
  <text x="564" y="571" fill="#0B1020" font-family="Arial, Helvetica, sans-serif" font-size="24" font-weight="700">Python 3.12</text>

  <rect x="1088" y="144" width="344" height="226" rx="28" fill="#F5F8FE" stroke="#D7DFEE" stroke-width="4"/>
  <text x="1124" y="196" fill="#0B1020" font-family="Arial, Helvetica, sans-serif" font-size="34" font-weight="700">VS Code</text>
  <text x="1124" y="238" fill="#6B7280" font-family="Arial, Helvetica, sans-serif" font-size="22">Install extensions</text>
  <rect x="1124" y="262" width="268" height="38" rx="12" fill="#E7EDF7"/>
  <text x="1146" y="287" fill="#0B1020" font-family="Arial, Helvetica, sans-serif" font-size="20" font-weight="700">Python</text>
  <rect x="1124" y="314" width="268" height="38" rx="12" fill="#E7EDF7"/>
  <text x="1146" y="339" fill="#0B1020" font-family="Arial, Helvetica, sans-serif" font-size="20" font-weight="700">Jupyter</text>

  <rect x="1088" y="394" width="344" height="172" rx="28" fill="#2F6BFF"/>
  <text x="1124" y="452" fill="white" font-family="Arial, Helvetica, sans-serif" font-size="34" font-weight="700">Notebook</text>
  <text x="1124" y="494" fill="white" font-family="Arial, Helvetica, sans-serif" font-size="22">Run cell</text>
  <rect x="1124" y="516" width="116" height="22" rx="11" fill="#D9E5FF"/>
  <rect x="1256" y="516" width="136" height="22" rx="11" fill="#D9E5FF"/>

  <rect x="1088" y="590" width="344" height="172" rx="28" fill="#F5F8FE" stroke="#D7DFEE" stroke-width="4"/>
  <text x="1124" y="644" fill="#0B1020" font-family="Arial, Helvetica, sans-serif" font-size="34" font-weight="700">Python File</text>
  <text x="1124" y="686" fill="#6B7280" font-family="Arial, Helvetica, sans-serif" font-size="22">uv run python</text>
  <rect x="1124" y="706" width="264" height="30" rx="15" fill="#E7EDF7"/>
  <text x="1144" y="727" fill="#0B1020" font-family="Courier New, monospace" font-size="16" font-weight="700">0-uv-check.py</text>

  <rect x="196" y="786" width="1248" height="74" rx="24" fill="#F5F8FE" stroke="#D7DFEE" stroke-width="3"/>
  <text x="820" y="832" text-anchor="middle" fill="#0B1020" font-family="Arial, Helvetica, sans-serif" font-size="24" font-weight="700">From cloned repo to a working notebook and Python environment</text>

  <defs>
    <linearGradient id="screenGradient" x1="178" y1="168" x2="994" y2="626" gradientUnits="userSpaceOnUse">
      <stop stop-color="#101A34"/>
      <stop offset="1" stop-color="#16254C"/>
    </linearGradient>
  </defs>
</svg>
