<svg width="1440" height="900" viewBox="0 0 1440 900" fill="none" xmlns="http://www.w3.org/2000/svg">
  <rect width="1440" height="900" fill="#FAFBFD" />
  <rect x="1000" y="-20" width="220" height="220" rx="42" transform="rotate(14 1000 -20)" fill="#2F6BFF" fill-opacity="0.1" />
  <g opacity="0.05">
    <path d="M60 140H1380" stroke="#2F6BFF" />
    <path d="M60 200H1380" stroke="#2F6BFF" />
    <path d="M60 260H1380" stroke="#2F6BFF" />
    <path d="M60 320H1380" stroke="#2F6BFF" />
    <path d="M60 380H1380" stroke="#2F6BFF" />
    <path d="M60 440H1380" stroke="#2F6BFF" />
    <path d="M60 500H1380" stroke="#2F6BFF" />
  </g>
  <text x="76" y="230" fill="#0B1020" font-family="Space Grotesk, Inter, sans-serif" font-size="92" font-weight="700" letter-spacing="-3">
    Learn to build real
  </text>
  <text x="76" y="330" fill="#0B1020" font-family="Space Grotesk, Inter, sans-serif" font-size="92" font-weight="700" letter-spacing="-3">
    AI systems
  </text>
  <text x="80" y="418" fill="#1A2236" font-family="IBM Plex Sans, Inter, sans-serif" font-size="30">
    Practical AI engineering education for developers who want
  </text>
  <text x="80" y="458" fill="#1A2236" font-family="IBM Plex Sans, Inter, sans-serif" font-size="30">
    systems, not slogans.
  </text>
  <rect x="80" y="560" width="220" height="60" rx="18" fill="#0B1020" />
  <rect x="322" y="560" width="220" height="60" rx="18" fill="white" stroke="#E7EDF7" />
  <text x="114" y="599" fill="white" font-family="IBM Plex Sans, Inter, sans-serif" font-size="24" font-weight="700">
    Start Learning
  </text>
  <text x="354" y="599" fill="#0B1020" font-family="IBM Plex Sans, Inter, sans-serif" font-size="24" font-weight="700">
    Explore Projects
  </text>
  <rect x="860" y="118" width="500" height="660" rx="30" fill="#0B1020" />
  <rect x="1040" y="94" width="170" height="170" rx="34" transform="rotate(14 1040 94)" fill="#2F6BFF" fill-opacity="0.2" />
  <g opacity="0.08">
    <path d="M900 196H1300" stroke="#8FB2FF" />
    <path d="M900 252H1300" stroke="#8FB2FF" />
    <path d="M900 308H1300" stroke="#8FB2FF" />
    <path d="M900 364H1300" stroke="#8FB2FF" />
    <path d="M900 420H1300" stroke="#8FB2FF" />
    <path d="M900 476H1300" stroke="#8FB2FF" />
    <path d="M900 532H1300" stroke="#8FB2FF" />
  </g>
  <rect x="900" y="540" width="178" height="48" rx="14" fill="#2F6BFF" />
  <text x="934" y="571" fill="white" font-family="IBM Plex Sans, Inter, sans-serif" font-size="18" font-weight="700">
    Course / Live
  </text>
  <text x="900" y="636" fill="#E7EDF7" font-family="IBM Plex Sans, Inter, sans-serif" font-size="24">
    Build by doing. Add theory only
  </text>
  <text x="900" y="670" fill="#E7EDF7" font-family="IBM Plex Sans, Inter, sans-serif" font-size="24">
    when it helps the product move.
  </text>
</svg>
